<svg width="38" height="38" viewBox="0 0 38 38" fill="none" xmlns="http://www.w3.org/2000/svg">
<path d="M19 18.2083C17.9501 18.2083 16.9433 17.7913 16.201 17.049C15.4587 16.3066 15.0416 15.2998 15.0416 14.25C15.0416 13.2002 15.4587 12.1934 16.201 11.451C16.9433 10.7087 17.9501 10.2917 19 10.2917C20.0498 10.2917 21.0566 10.7087 21.7989 11.451C22.5413 12.1934 22.9583 13.2002 22.9583 14.25C22.9583 14.7698 22.8559 15.2845 22.657 15.7648C22.4581 16.245 22.1665 16.6814 21.7989 17.049C21.4314 17.4165 20.995 17.7081 20.5147 17.907C20.0345 18.1059 19.5198 18.2083 19 18.2083ZM19 3.16666C16.0605 3.16666 13.2414 4.33436 11.1629 6.41289C9.08433 8.49142 7.91663 11.3105 7.91663 14.25C7.91663 22.5625 19 34.8333 19 34.8333C19 34.8333 30.0833 22.5625 30.0833 14.25C30.0833 11.3105 28.9156 8.49142 26.8371 6.41289C24.7585 4.33436 21.9394 3.16666 19 3.16666Z" fill="#052070"/>
</svg>
