<svg width="38" height="38" viewBox="0 0 38 38" fill="none" xmlns="http://www.w3.org/2000/svg">
<path d="M23.75 35.625H20.1875C19.5578 35.6244 18.9541 35.3739 18.5088 34.9287C18.0636 34.4834 17.8131 33.8797 17.8125 33.25V27.3125H20.1875V33.25H23.75V27.3125H26.125V22.5625C26.1247 22.2477 25.9995 21.9458 25.7768 21.7232C25.5542 21.5005 25.2523 21.3753 24.9375 21.375H14.5825L12.2075 14.25H4.75C4.43515 14.2503 4.13329 14.3755 3.91066 14.5982C3.68803 14.8208 3.56281 15.1227 3.5625 15.4375V22.5625H5.9375V33.25H10.6875V24.9375H13.0625V33.25C13.0619 33.8797 12.8114 34.4834 12.3662 34.9287C11.9209 35.3739 11.3172 35.6244 10.6875 35.625H5.9375C5.3078 35.6244 4.70408 35.3739 4.25882 34.9287C3.81355 34.4834 3.56313 33.8797 3.5625 33.25V24.9375C2.9328 24.9369 2.32908 24.6864 1.88382 24.2412C1.43855 23.7959 1.18813 23.1922 1.1875 22.5625V15.4375C1.18844 14.493 1.56408 13.5874 2.23197 12.9195C2.89987 12.2516 3.80546 11.8759 4.75 11.875H12.2075C12.7059 11.8747 13.1917 12.0313 13.5961 12.3227C14.0005 12.6141 14.3028 13.0254 14.4602 13.4983L16.2925 19H24.9375C25.882 19.0009 26.7876 19.3766 27.4555 20.0445C28.1234 20.7124 28.4991 21.618 28.5 22.5625V27.3125C28.4994 27.9422 28.2489 28.5459 27.8037 28.9912C27.3584 29.4364 26.7547 29.6869 26.125 29.6875V33.25C26.1244 33.8797 25.8739 34.4834 25.4287 34.9287C24.9834 35.3739 24.3797 35.6244 23.75 35.625Z" fill="#052070"/>
<path d="M33.25 35.625H30.875V22.5625H34.4375V15.4375C34.4372 15.1227 34.312 14.8208 34.0893 14.5982C33.8667 14.3755 33.5648 14.2503 33.25 14.25H28.5V11.875H33.25C34.1945 11.8759 35.1001 12.2516 35.768 12.9195C36.4359 13.5874 36.8116 14.493 36.8125 15.4375V22.5625C36.8119 23.1922 36.5614 23.7959 36.1162 24.2412C35.6709 24.6864 35.0672 24.9369 34.4375 24.9375H33.25V35.625Z" fill="#052070"/>
<path d="M8.3125 10.6875C7.37304 10.6875 6.45468 10.4089 5.67354 9.88698C4.89241 9.36505 4.28359 8.6232 3.92407 7.75525C3.56456 6.8873 3.47049 5.93223 3.65377 5.01082C3.83705 4.08941 4.28945 3.24304 4.95374 2.57875C5.61804 1.91445 6.46441 1.46205 7.38582 1.27877C8.30723 1.09549 9.2623 1.18956 10.1303 1.54907C10.9982 1.90859 11.74 2.51741 12.262 3.29854C12.7839 4.07968 13.0625 4.99804 13.0625 5.9375C13.0609 7.1968 12.56 8.40407 11.6695 9.29453C10.7791 10.185 9.5718 10.6859 8.3125 10.6875ZM8.3125 3.5625C7.84277 3.5625 7.38359 3.70179 6.99302 3.96276C6.60246 4.22373 6.29805 4.59466 6.11829 5.02863C5.93853 5.4626 5.8915 5.94014 5.98314 6.40084C6.07478 6.86155 6.30097 7.28473 6.63312 7.61688C6.96527 7.94903 7.38846 8.17523 7.84916 8.26687C8.30987 8.35851 8.7874 8.31148 9.22138 8.13172C9.65535 7.95196 10.0263 7.64755 10.2872 7.25698C10.5482 6.86642 10.6875 6.40723 10.6875 5.9375C10.6869 5.30781 10.4365 4.70408 9.99119 4.25882C9.54592 3.81356 8.9422 3.56313 8.3125 3.5625Z" fill="#052070"/>
<path d="M29.6875 10.6875C28.748 10.6875 27.8297 10.4089 27.0485 9.88698C26.2674 9.36505 25.6586 8.6232 25.2991 7.75525C24.9396 6.8873 24.8455 5.93223 25.0288 5.01082C25.2121 4.08941 25.6644 3.24304 26.3287 2.57875C26.993 1.91445 27.8394 1.46205 28.7608 1.27877C29.6822 1.09549 30.6373 1.18956 31.5052 1.54907C32.3732 1.90859 33.115 2.51741 33.637 3.29854C34.1589 4.07968 34.4375 4.99804 34.4375 5.9375C34.4359 7.1968 33.935 8.40407 33.0445 9.29453C32.1541 10.185 30.9468 10.6859 29.6875 10.6875ZM29.6875 3.5625C29.2178 3.5625 28.7586 3.70179 28.368 3.96276C27.9775 4.22373 27.673 4.59466 27.4933 5.02863C27.3135 5.4626 27.2665 5.94014 27.3581 6.40084C27.4498 6.86155 27.676 7.28473 28.0081 7.61688C28.3403 7.94903 28.7635 8.17523 29.2242 8.26687C29.6849 8.35851 30.1624 8.31148 30.5964 8.13172C31.0304 7.95196 31.4013 7.64755 31.6622 7.25698C31.9232 6.86642 32.0625 6.40723 32.0625 5.9375C32.0619 5.30781 31.8115 4.70408 31.3662 4.25882C30.9209 3.81356 30.3172 3.56313 29.6875 3.5625Z" fill="#052070"/>
<path d="M21.9688 17.8125C21.1467 17.8125 20.3432 17.5687 19.6597 17.112C18.9762 16.6554 18.4435 16.0062 18.1289 15.2468C17.8143 14.4873 17.732 13.6516 17.8924 12.8454C18.0527 12.0392 18.4486 11.2986 19.0298 10.7173C19.6111 10.1361 20.3517 9.74023 21.1579 9.57986C21.9641 9.41949 22.7998 9.5018 23.5593 9.81638C24.3187 10.131 24.9679 10.6637 25.4245 11.3472C25.8812 12.0307 26.125 12.8342 26.125 13.6563C26.1237 14.7582 25.6855 15.8146 24.9063 16.5938C24.1271 17.373 23.0707 17.8112 21.9688 17.8125ZM21.9688 11.875C21.6165 11.875 21.2721 11.9795 20.9791 12.1752C20.6862 12.3709 20.4579 12.6491 20.3231 12.9746C20.1883 13.3001 20.153 13.6582 20.2217 14.0038C20.2905 14.3493 20.4601 14.6667 20.7092 14.9158C20.9583 15.1649 21.2757 15.3345 21.6212 15.4033C21.9668 15.472 22.3249 15.4367 22.6504 15.3019C22.9759 15.1671 23.2541 14.9388 23.4498 14.6459C23.6455 14.3529 23.75 14.0086 23.75 13.6563C23.7494 13.184 23.5615 12.7313 23.2276 12.3974C22.8937 12.0635 22.441 11.8756 21.9688 11.875Z" fill="#052070"/>
</svg>
