<svg width="38" height="38" viewBox="0 0 38 38" fill="none" xmlns="http://www.w3.org/2000/svg">
<path d="M30.0833 3.16666H7.91663C6.65685 3.16666 5.44867 3.6671 4.55787 4.5579C3.66707 5.4487 3.16663 6.65688 3.16663 7.91666V30.0833C3.16663 31.3431 3.66707 32.5513 4.55787 33.4421C5.44867 34.3329 6.65685 34.8333 7.91663 34.8333H30.0833C30.3437 34.8297 30.6033 34.8032 30.8591 34.7542L31.3341 34.6433H31.5241L32.11 34.4217L32.3158 34.3108C32.4741 34.2158 32.6483 34.1367 32.8066 34.0258C33.018 33.8703 33.219 33.701 33.4083 33.5192L33.5191 33.3767C33.6746 33.2191 33.8175 33.0497 33.9466 32.87L34.0891 32.6642C34.1997 32.4879 34.2951 32.3025 34.3741 32.11C34.4176 32.034 34.4546 31.9546 34.485 31.8725C34.5641 31.6825 34.6116 31.4767 34.675 31.2708V31.0333C34.7647 30.7239 34.8179 30.4051 34.8333 30.0833V7.91666C34.8333 6.65688 34.3329 5.4487 33.4421 4.5579C32.5513 3.6671 31.3431 3.16666 30.0833 3.16666ZM7.91663 31.6667C7.4967 31.6667 7.09397 31.4998 6.79704 31.2029C6.50011 30.906 6.33329 30.5033 6.33329 30.0833V23.2592L11.5425 18.0342C11.6897 17.8858 11.8648 17.768 12.0577 17.6876C12.2507 17.6072 12.4576 17.5658 12.6666 17.5658C12.8756 17.5658 13.0826 17.6072 13.2755 17.6876C13.4685 17.768 13.6436 17.8858 13.7908 18.0342L27.4075 31.6667H7.91663ZM31.6666 30.0833C31.6651 30.2785 31.6276 30.4718 31.5558 30.6533C31.5196 30.7305 31.4772 30.8046 31.4291 30.875C31.3868 30.942 31.3391 31.0056 31.2866 31.065L22.8158 22.5942L24.2091 21.2008C24.3563 21.0524 24.5314 20.9346 24.7244 20.8542C24.9173 20.7739 25.1243 20.7325 25.3333 20.7325C25.5423 20.7325 25.7493 20.7739 25.9422 20.8542C26.1352 20.9346 26.3103 21.0524 26.4575 21.2008L31.6666 26.4258V30.0833ZM31.6666 21.945L28.69 19C27.7839 18.1402 26.5824 17.6609 25.3333 17.6609C24.0842 17.6609 22.8827 18.1402 21.9766 19L20.5833 20.3933L16.0233 15.8333C15.1172 14.9736 13.9157 14.4943 12.6666 14.4943C11.4175 14.4943 10.2161 14.9736 9.30996 15.8333L6.33329 18.7783V7.91666C6.33329 7.49673 6.50011 7.094 6.79704 6.79707C7.09397 6.50014 7.4967 6.33332 7.91663 6.33332H30.0833C30.5032 6.33332 30.906 6.50014 31.2029 6.79707C31.4998 7.094 31.6666 7.49673 31.6666 7.91666V21.945ZM21.375 9.49999C20.9052 9.49999 20.446 9.63928 20.0555 9.90025C19.6649 10.1612 19.3605 10.5321 19.1807 10.9661C19.001 11.4001 18.954 11.8776 19.0456 12.3383C19.1372 12.799 19.3634 13.2222 19.6956 13.5544C20.0277 13.8865 20.4509 14.1127 20.9116 14.2044C21.3723 14.296 21.8499 14.249 22.2838 14.0692C22.7178 13.8894 23.0887 13.585 23.3497 13.1945C23.6107 12.8039 23.75 12.3447 23.75 11.875C23.75 11.2451 23.4997 10.641 23.0543 10.1956C22.6089 9.75021 22.0049 9.49999 21.375 9.49999Z" fill="#052070"/>
</svg>
